<svg width="36" height="40" viewBox="0 0 36 40" fill="none" xmlns="http://www.w3.org/2000/svg" xmlns:xlink="http://www.w3.org/1999/xlink">
<path d="M34,12L22,1.48C20.9,0.496 19.476,-0.048 18,-0.048C16.524,-0.048 15.1,0.496 14,1.48L2,12C1.365,12.568 0.858,13.265 0.513,14.045C0.168,14.824 -0.007,15.668 0,16.52L0,34C0,35.591 0.632,37.117 1.757,38.243C2.883,39.368 4.409,40 6,40L30,40C31.591,40 33.117,39.368 34.243,38.243C35.368,37.117 36,35.591 36,34L36,16.5C36.004,15.651 35.828,14.811 35.483,14.035C35.138,13.26 34.633,12.566 34,12L34,12ZM22,36L14,36L14,26C14,25.47 14.211,24.961 14.586,24.586C14.961,24.211 15.47,24 16,24L20,24C20.53,24 21.039,24.211 21.414,24.586C21.789,24.961 22,25.47 22,26L22,36ZM32,34C32,34.53 31.789,35.039 31.414,35.414C31.039,35.789 30.53,36 30,36L26,36L26,26C26,24.409 25.368,22.883 24.243,21.757C23.117,20.632 21.591,20 20,20L16,20C14.409,20 12.883,20.632 11.757,21.757C10.632,22.883 10,24.409 10,26L10,36L6,36C5.47,36 4.961,35.789 4.586,35.414C4.211,35.039 4,34.53 4,34L4,16.5C4,16.216 4.061,15.935 4.178,15.677C4.296,15.418 4.467,15.187 4.68,15L16.68,4.5C17.045,4.179 17.514,4.003 18,4.003C18.486,4.003 18.955,4.179 19.32,4.5L31.32,15C31.533,15.187 31.704,15.418 31.822,15.677C31.939,15.935 32,16.216 32,16.5L32,34Z" fill="#FFFFFF"/>
</svg>
