<svg width="28" height="28" viewBox="0 0 28 28" fill="none" xmlns="http://www.w3.org/2000/svg" xmlns:xlink="http://www.w3.org/1999/xlink">
<path d="M18,12.667L15.333,12.667L15.333,7.333C15.333,6.98 15.193,6.641 14.943,6.391C14.693,6.14 14.354,6 14,6C13.646,6 13.307,6.14 13.057,6.391C12.807,6.641 12.667,6.98 12.667,7.333L12.667,14C12.667,14.354 12.807,14.693 13.057,14.943C13.307,15.193 13.646,15.333 14,15.333L18,15.333C18.354,15.333 18.693,15.193 18.943,14.943C19.193,14.693 19.333,14.354 19.333,14C19.333,13.646 19.193,13.307 18.943,13.057C18.693,12.807 18.354,12.667 18,12.667ZM14,0.667C11.363,0.667 8.785,1.449 6.592,2.914C4.4,4.379 2.691,6.461 1.682,8.898C0.672,11.334 0.408,14.015 0.923,16.601C1.437,19.188 2.707,21.563 4.572,23.428C6.437,25.293 8.812,26.563 11.399,27.077C13.985,27.592 16.666,27.327 19.102,26.318C21.539,25.309 23.621,23.6 25.086,21.408C26.551,19.215 27.333,16.637 27.333,14C27.333,12.249 26.988,10.515 26.318,8.898C25.648,7.28 24.666,5.81 23.428,4.572C22.19,3.334 20.72,2.352 19.102,1.682C17.485,1.012 15.751,0.667 14,0.667L14,0.667ZM14,24.667C11.89,24.667 9.828,24.041 8.074,22.869C6.32,21.697 4.953,20.031 4.145,18.082C3.338,16.133 3.127,13.988 3.538,11.919C3.95,9.85 4.966,7.949 6.457,6.458C7.949,4.966 9.85,3.95 11.919,3.538C13.988,3.127 16.133,3.338 18.082,4.145C20.031,4.953 21.697,6.32 22.869,8.074C24.041,9.828 24.667,11.89 24.667,14C24.667,16.829 23.543,19.542 21.542,21.542C19.542,23.543 16.829,24.667 14,24.667L14,24.667Z" fill="#3A3A3B"/>
</svg>
