<svg width="32" height="40" viewBox="0 0 32 40" fill="none" xmlns="http://www.w3.org/2000/svg" xmlns:xlink="http://www.w3.org/1999/xlink">
<path d="M26,0L2,0C1.47,0 0.961,0.211 0.586,0.586C0.211,0.961 0,1.47 0,2L0,34C0,34.53 0.211,35.039 0.586,35.414C0.961,35.789 1.47,36 2,36L4,36L4,38C4,38.53 4.211,39.039 4.586,39.414C4.961,39.789 5.47,40 6,40C6.53,40 7.039,39.789 7.414,39.414C7.789,39.039 8,38.53 8,38L8,36L26,36C27.591,36 29.117,35.368 30.243,34.243C31.368,33.117 32,31.591 32,30L32,6C32,4.409 31.368,2.883 30.243,1.757C29.117,0.632 27.591,0 26,0ZM20,32L4,32L4,4L20,4L20,32ZM28,30C28,30.53 27.789,31.039 27.414,31.414C27.039,31.789 26.53,32 26,32L24,32L24,4L26,4C26.53,4 27.039,4.211 27.414,4.586C27.789,4.961 28,5.47 28,6L28,30Z" fill="#3A3A3B"/>
</svg>
