<svg width="40" height="40" viewBox="0 0 40 40" fill="none" xmlns="http://www.w3.org/2000/svg" xmlns:xlink="http://www.w3.org/1999/xlink">
<path d="M39.42,36.58L32,29.22C34.88,25.629 36.275,21.071 35.898,16.483C35.52,11.895 33.399,7.626 29.971,4.553C26.543,1.481 22.068,-0.161 17.466,-0.035C12.864,0.091 8.485,1.975 5.23,5.23C1.975,8.485 0.091,12.864 -0.035,17.466C-0.161,22.068 1.481,26.543 4.553,29.971C7.626,33.399 11.895,35.52 16.483,35.898C21.071,36.275 25.629,34.88 29.22,32L36.58,39.36C36.766,39.547 36.987,39.696 37.231,39.798C37.475,39.899 37.736,39.952 38,39.952C38.264,39.952 38.525,39.899 38.769,39.798C39.013,39.696 39.234,39.547 39.42,39.36C39.78,38.987 39.982,38.489 39.982,37.97C39.982,37.451 39.78,36.953 39.42,36.58ZM18,32C15.231,32 12.524,31.179 10.222,29.641C7.92,28.102 6.125,25.916 5.066,23.358C4.006,20.799 3.729,17.984 4.269,15.269C4.809,12.553 6.143,10.058 8.101,8.1C10.058,6.143 12.553,4.809 15.269,4.269C17.985,3.729 20.799,4.006 23.358,5.066C25.916,6.125 28.102,7.92 29.641,10.222C31.179,12.524 32,15.231 32,18C32,21.713 30.525,25.274 27.899,27.899C25.274,30.525 21.713,32 18,32Z" fill="#3A3A3B"/>
</svg>
