<svg width="34" height="34" viewBox="0 0 34 34" fill="none" xmlns="http://www.w3.org/2000/svg" xmlns:xlink="http://www.w3.org/1999/xlink">
<path d="M18.82,16L31.42,3.42C31.797,3.043 32.008,2.533 32.008,2C32.008,1.467 31.797,0.957 31.42,0.58C31.043,0.203 30.533,-0.008 30,-0.008C29.467,-0.008 28.957,0.203 28.58,0.58L16,13.18L3.42,0.58C3.043,0.203 2.533,-0.008 2,-0.008C1.467,-0.008 0.957,0.203 0.58,0.58C0.203,0.957 -0.008,1.467 -0.008,2C-0.008,2.533 0.203,3.043 0.58,3.42L13.18,16L0.58,28.58C0.393,28.766 0.244,28.987 0.142,29.231C0.041,29.475 -0.012,29.736 -0.012,30C-0.012,30.264 0.041,30.525 0.142,30.769C0.244,31.013 0.393,31.234 0.58,31.42C0.766,31.607 0.987,31.756 1.231,31.858C1.475,31.959 1.736,32.012 2,32.012C2.264,32.012 2.525,31.959 2.769,31.858C3.013,31.756 3.234,31.607 3.42,31.42L16,18.82L28.58,31.42C28.766,31.607 28.987,31.756 29.231,31.858C29.475,31.959 29.736,32.012 30,32.012C30.264,32.012 30.525,31.959 30.769,31.858C31.013,31.756 31.234,31.607 31.42,31.42C31.607,31.234 31.756,31.013 31.858,30.769C31.959,30.525 32.012,30.264 32.012,30C32.012,29.736 31.959,29.475 31.858,29.231C31.756,28.987 31.607,28.766 31.42,28.58L18.82,16Z" fill="#3A3A3B"/>
</svg>
