<svg width="28" height="42" viewBox="0 0 28 42" fill="none" xmlns="http://www.w3.org/2000/svg" xmlns:xlink="http://www.w3.org/1999/xlink">
<path d="M22,0L6,0C4.409,0 2.883,0.632 1.757,1.757C0.632,2.883 0,4.409 0,6L0,38C-0.001,38.352 0.09,38.699 0.266,39.005C0.442,39.31 0.695,39.564 1,39.74C1.304,39.916 1.649,40.008 2,40.008C2.351,40.008 2.696,39.916 3,39.74L14,33.38L25,39.74C25.305,39.913 25.65,40.002 26,40C26.35,40.002 26.695,39.913 27,39.74C27.305,39.564 27.558,39.31 27.734,39.005C27.91,38.699 28.001,38.352 28,38L28,6C28,4.409 27.368,2.883 26.243,1.757C25.117,0.632 23.591,0 22,0ZM24,34.54L15,29.34C14.696,29.164 14.351,29.072 14,29.072C13.649,29.072 13.304,29.164 13,29.34L4,34.54L4,6C4,5.47 4.211,4.961 4.586,4.586C4.961,4.211 5.47,4 6,4L22,4C22.53,4 23.039,4.211 23.414,4.586C23.789,4.961 24,5.47 24,6L24,34.54Z" fill="#3A3A3B"/>
</svg>
